<?xml version="1.0" standalone="no"?>
<!DOCTYPE svg PUBLIC "-//W3C//DTD SVG 20010904//EN"
 "http://www.w3.org/TR/2001/REC-SVG-20010904/DTD/svg10.dtd">
<svg version="1.0" xmlns="http://www.w3.org/2000/svg"
 width="411.000000pt" height="193.000000pt" viewBox="0 0 411.000000 193.000000"
 preserveAspectRatio="xMidYMid meet">

<g transform="translate(0.000000,193.000000) scale(0.100000,-0.100000)"
fill="#000000" stroke="none">
<path d="M1083 1729 c-44 -99 -133 -166 -303 -229 -47 -17 -120 -45 -163 -60
-409 -152 -608 -479 -487 -803 46 -122 185 -244 333 -292 194 -62 397 -6 496
139 l31 44 -56 -33 c-121 -73 -242 -70 -320 9 -51 51 -61 95 -40 171 21 72 76
138 174 209 45 33 80 61 79 63 -2 1 -49 -15 -105 -37 -108 -42 -197 -93 -239
-138 -95 -101 -97 -276 -4 -355 43 -36 24 -35 -26 2 -66 48 -88 93 -88 181 0
58 5 86 23 122 54 109 163 195 334 262 284 113 401 197 447 320 21 55 29 166
13 166 -4 0 -18 -20 -29 -44 -57 -117 -173 -189 -488 -303 -259 -94 -408 -242
-423 -419 -8 -104 -25 -76 -20 34 3 79 9 107 31 153 57 119 144 188 357 284
350 158 417 203 476 322 32 63 36 80 36 145 -1 40 -5 87 -10 103 l-9 30 -20
-46z"/>
<path d="M1085 1095 c-49 -17 -111 -84 -125 -134 -13 -47 -13 -136 1 -184 14
-50 71 -113 117 -128 53 -17 145 -13 195 9 56 25 62 34 42 72 -18 35 -20 35
-68 15 -37 -15 -103 -20 -132 -9 -19 8 -45 55 -45 84 0 19 6 20 141 20 l142 0
-6 65 c-10 103 -49 164 -124 191 -48 17 -88 17 -138 -1z m123 -97 c11 -13 24
-35 27 -50 l7 -28 -86 0 c-80 0 -86 1 -86 21 0 11 13 34 29 50 36 36 79 38
109 7z"/>
<path d="M1685 1097 c-17 -8 -36 -21 -44 -30 -12 -15 -16 -15 -43 5 -34 23
-107 34 -162 24 l-36 -7 0 -219 0 -220 55 0 55 0 0 170 0 170 25 0 c14 0 29
-8 35 -19 5 -11 10 -86 10 -170 l0 -151 50 0 50 0 0 159 c0 132 3 162 16 175
8 9 22 16 29 16 7 0 21 -7 29 -16 13 -13 16 -43 16 -175 l0 -159 56 0 56 0 -4
178 c-3 192 -11 224 -63 258 -34 22 -94 27 -130 11z"/>
<path d="M2098 1087 c-37 -18 -48 -21 -52 -10 -4 8 -23 13 -56 13 l-50 0 0
-295 0 -295 55 0 55 0 0 85 c0 47 3 85 8 85 4 0 16 -7 26 -15 26 -20 119 -19
156 0 33 17 70 64 91 115 22 55 17 186 -9 237 -47 91 -139 124 -224 80z m98
-101 c24 -20 28 -32 32 -89 5 -75 -11 -132 -40 -148 -31 -17 -97 -13 -119 7
-16 14 -19 31 -19 108 0 50 4 96 8 103 11 17 64 43 89 43 12 0 34 -11 49 -24z"/>
<path d="M2527 1096 c-77 -28 -126 -100 -134 -197 -16 -176 96 -289 257 -259
51 10 104 32 114 49 4 5 -3 25 -14 44 l-21 35 -36 -19 c-37 -19 -106 -25 -138
-13 -19 8 -45 55 -45 84 0 19 6 20 135 20 104 0 137 3 141 13 10 27 -16 140
-40 177 -43 65 -142 95 -219 66z m121 -98 c11 -13 24 -35 27 -50 l7 -28 -86 0
c-80 0 -86 1 -86 21 0 11 13 34 29 50 36 36 79 38 109 7z"/>
<path d="M3355 1104 c-11 -3 -39 -12 -62 -20 -46 -17 -53 -36 -34 -88 l10 -24
38 19 c46 23 125 25 147 3 9 -8 16 -26 16 -38 0 -21 -7 -24 -72 -35 -40 -6
-91 -22 -113 -34 -82 -46 -96 -148 -30 -214 30 -30 39 -33 92 -33 41 0 68 6
92 21 31 18 35 19 43 5 6 -11 24 -16 59 -16 l51 0 -4 178 c-5 196 -11 220 -65
253 -33 21 -126 33 -168 23z m115 -294 c0 -51 -29 -80 -82 -80 -31 0 -41 5
-50 25 -23 51 21 91 105 94 25 1 27 -2 27 -39z"/>
<path d="M2840 1048 l0 -47 91 -3 90 -3 -100 -132 c-90 -117 -101 -136 -101
-172 l0 -41 175 0 175 0 0 45 0 45 -100 0 c-55 0 -100 3 -100 8 0 4 43 63 95
132 86 112 95 129 95 167 l0 43 -82 0 c-46 1 -118 2 -161 3 l-77 2 0 -47z"/>
<path d="M3822 1075 c-36 -30 -42 -31 -42 -5 0 17 -7 20 -50 20 l-50 0 0 -220
0 -220 55 0 55 0 0 141 0 141 29 29 c20 19 40 29 60 29 36 0 37 2 46 63 l7 47
-40 0 c-29 0 -49 -7 -70 -25z"/>
<path d="M1268 273 c30 -87 42 -109 59 -111 22 -3 33 17 79 151 l23 68 -21 -3
c-15 -2 -26 -17 -39 -53 -42 -122 -37 -120 -68 -30 -22 64 -32 81 -49 83 -21
3 -21 0 16 -105z"/>
<path d="M3682 308 c2 -57 6 -73 18 -73 12 0 16 16 18 73 3 67 2 72 -18 72
-20 0 -21 -5 -18 -72z"/>
<path d="M1173 344 c-8 -21 13 -42 28 -27 13 13 5 43 -11 43 -6 0 -13 -7 -17
-16z"/>
<path d="M1472 320 c-36 -15 -22 -35 21 -32 53 5 51 -23 -2 -32 -22 -3 -41
-13 -45 -22 -18 -48 8 -73 74 -72 l50 1 0 62 c0 34 -6 69 -12 78 -17 21 -57
29 -86 17z m56 -107 c-2 -10 -12 -18 -23 -18 -11 0 -21 8 -23 18 -3 13 3 17
23 17 20 0 26 -4 23 -17z"/>
<path d="M1670 320 c-8 -5 -25 -7 -37 -3 -22 5 -23 3 -23 -77 0 -72 2 -81 18
-78 13 2 18 16 22 63 4 52 8 60 27 63 20 3 22 -1 25 -60 2 -50 7 -63 20 -66
14 -3 17 7 20 60 2 52 6 63 22 66 26 5 36 -15 36 -75 0 -40 4 -53 15 -53 12 0
15 14 15 70 0 62 -3 71 -24 85 -19 13 -29 13 -49 4 -18 -8 -30 -8 -45 0 -25
13 -23 13 -42 1z"/>
<path d="M1894 307 c-56 -48 -28 -147 41 -147 37 0 55 10 71 42 27 52 1 108
-57 123 -20 5 -33 0 -55 -18z m78 -42 c22 -49 -25 -98 -60 -63 -7 7 -12 24
-12 38 0 51 52 69 72 25z"/>
<path d="M2060 310 c-11 -11 -20 -23 -20 -28 0 -18 32 -50 55 -56 39 -10 24
-31 -19 -29 -43 3 -51 -23 -11 -33 86 -21 128 66 45 94 -40 14 -40 36 0 30 37
-6 50 10 25 29 -26 19 -52 16 -75 -7z"/>
<path d="M2282 320 c-36 -15 -22 -35 21 -32 53 5 51 -23 -2 -32 -22 -3 -41
-13 -45 -22 -18 -48 8 -73 74 -72 l50 1 0 62 c0 34 -6 69 -12 78 -17 21 -57
29 -86 17z m56 -107 c-2 -10 -13 -19 -26 -21 -17 -3 -22 2 -22 17 0 16 6 21
26 21 19 0 25 -5 22 -17z"/>
<path d="M2530 317 c-14 -7 -31 -25 -38 -41 -12 -23 -12 -34 0 -64 16 -43 53
-61 95 -46 33 11 27 30 -8 26 -16 -2 -34 5 -45 15 -17 17 -16 18 37 23 53 5
54 6 52 34 -4 50 -49 75 -93 53z m58 -44 c2 -9 -7 -13 -27 -13 -21 0 -31 5
-31 16 0 19 51 16 58 -3z"/>
<path d="M2720 320 c-8 -5 -25 -7 -37 -3 -22 5 -23 3 -23 -76 0 -65 3 -81 15
-81 11 0 15 13 15 53 0 55 12 77 42 77 14 0 18 -11 20 -62 2 -48 7 -63 18 -63
11 0 16 16 20 60 4 52 8 60 27 63 20 3 22 -1 25 -60 2 -50 6 -63 21 -66 15 -3
17 5 17 62 0 53 -4 70 -21 87 -14 14 -26 18 -42 13 -26 -9 -47 -9 -67 -1 -8 4
-22 3 -30 -3z"/>
<path d="M2987 324 c-4 -4 -20 -7 -37 -6 l-30 1 0 -110 c0 -100 2 -110 18
-107 11 2 18 14 20 34 3 27 6 30 28 26 33 -6 71 21 79 57 7 31 -17 101 -34
101 -5 0 -16 2 -23 5 -8 3 -17 3 -21 -1z m35 -59 c16 -36 -4 -78 -35 -73 -17
2 -23 11 -25 36 -2 19 -1 40 2 48 9 23 45 16 58 -11z"/>
<path d="M3135 318 c-32 -17 -45 -39 -45 -79 0 -29 6 -42 26 -58 28 -22 69
-27 93 -12 21 14 3 32 -25 25 -24 -6 -54 9 -54 27 0 5 23 9 50 9 48 0 50 1 50
28 0 33 -8 45 -37 61 -26 13 -32 13 -58 -1z m55 -43 c0 -10 -10 -15 -30 -15
-29 0 -38 9 -23 23 13 13 53 7 53 -8z"/>
<path d="M3433 320 c-37 -15 -28 -37 13 -36 22 1 39 -4 41 -11 3 -8 -5 -13
-22 -13 -42 0 -65 -17 -65 -49 0 -39 18 -51 76 -47 l49 2 3 57 c3 50 0 60 -22
82 -27 27 -38 29 -73 15z m55 -107 c-4 -22 -38 -30 -49 -12 -11 19 -2 29 27
29 19 0 25 -5 22 -17z"/>
<path d="M3620 315 c-10 -12 -15 -13 -21 -4 -4 7 -14 9 -23 6 -25 -10 -19
-150 7 -155 14 -3 17 4 17 47 0 50 17 81 45 81 8 0 11 7 8 20 -6 24 -16 25
-33 5z"/>
<path d="M3257 313 c-16 -15 -4 -23 34 -23 l41 0 -41 -52 c-23 -28 -40 -56
-38 -62 2 -6 31 -12 65 -14 50 -2 62 0 62 12 0 10 -13 16 -41 18 l-42 3 42 52
c22 29 41 57 41 63 0 11 -112 14 -123 3z"/>
<path d="M1176 234 c-11 -83 -8 -104 14 -104 18 0 20 7 20 75 0 57 -3 75 -14
75 -8 0 -16 -17 -20 -46z"/>
<path d="M3686 203 c-3 -4 -6 -15 -6 -25 0 -24 33 -21 38 3 3 17 -21 33 -32
22z"/>
</g>
</svg>
